<svg id="SvgjsSvg1011" width="100%" height="100%" xmlns="http://www.w3.org/2000/svg" version="1.1" xlink="http://www.w3.org/1999/xlink" xmlns:svgjs="http://svgjs.com/svgjs" preserveAspectRatio="xMidYMid meet" viewBox="-2.395995011283958e-7 0.0000023095619781088317 300 37.16944885253906" overflow="visible"><defs id="SvgjsDefs1012"></defs><g id="SvgjsG1013" transform="scale(0.40809681328681285)" opacity="1"><g id="SvgjsG1014" class="9_HswGJdb" transform="translate(-14.678679062818786, -14.558353759137708) scale(1.2031704337955191)" light-content="false" non-strokable="false" fill="#0882bf"><path d="M19.4 63.1h5.1v5.2c0 4 3.2 7.2 7.2 7.2h5.1v5.1c0 4 3.2 7.2 7.2 7.2h36.6c4 0 7.2-3.2 7.2-7.2V44c0-4-3.2-7.2-7.2-7.2h-5.2v-5.2c0-4-3.2-7.2-7.2-7.2H63v-5.1c0-4-3.2-7.2-7.2-7.2H19.4c-4 0-7.2 3.2-7.2 7.2V56c0 3.9 3.2 7.1 7.2 7.1zm42.7-26.2H44c-4 0-7.2 3.2-7.2 7.2v18.1H25.5V31.7c0-3.4 2.8-6.2 6.2-6.2h30.4v11.4zM37.9 63.1H56c4 0 7.2-3.2 7.2-7.2v-18h11.3v30.4c0 3.4-2.8 6.2-6.2 6.2H37.9V63.1z"></path></g><g id="SvgjsG1015" class="text" transform="translate(430.33968784186135, 67.74000122070312) scale(1)" light-content="false" fill="#141414"><path d="M-302.38 0L-272.2 0L-272.2 -8.13L-292.6 -8.13L-292.6 -44.4L-302.38 -44.4Z M-260.94 -1.93C-257.81 -0.26 -254.1 0.57 -249.79 0.57C-245.51 0.57 -241.81 -0.27 -238.68 -1.95C-235.55 -3.63 -233.13 -6.17 -231.42 -9.57C-229.71 -12.97 -228.85 -17.18 -228.85 -22.2C-228.85 -27.22 -229.71 -31.43 -231.4 -34.83C-233.1 -38.23 -235.52 -40.77 -238.65 -42.45C-241.78 -44.13 -245.5 -44.97 -249.79 -44.97C-254.09 -44.97 -257.81 -44.13 -260.94 -42.46C-264.07 -40.8 -266.49 -38.26 -268.2 -34.86C-269.91 -31.46 -270.76 -27.24 -270.76 -22.2C-270.76 -17.16 -269.91 -12.94 -268.2 -9.54C-266.49 -6.14 -264.07 -3.61 -260.94 -1.93ZM-241.69 -10.83C-243.55 -8.49 -246.25 -7.32 -249.79 -7.32C-253.36 -7.32 -256.06 -8.51 -257.92 -10.89C-259.79 -13.27 -260.71 -17.11 -260.71 -22.41C-260.71 -27.51 -259.78 -31.23 -257.91 -33.57C-256.04 -35.91 -253.33 -37.08 -249.79 -37.08C-246.28 -37.08 -243.58 -35.88 -241.71 -33.49C-239.84 -31.11 -238.9 -27.27 -238.9 -21.99C-238.9 -16.89 -239.83 -13.17 -241.69 -10.83Z M-217.96 -4.93C-214.03 -1.26 -208.26 0.57 -200.65 0.57C-198.89 0.57 -197.15 0.44 -195.42 0.2C-193.69 -0.05 -192.1 -0.4 -190.66 -0.84L-190.66 -8.91C-193.88 -7.97 -196.91 -7.5 -199.75 -7.5C-202.91 -7.5 -205.51 -7.98 -207.52 -8.95C-209.54 -9.93 -211.06 -11.49 -212.08 -13.65C-213.1 -15.81 -213.61 -18.67 -213.61 -22.23C-213.61 -25.71 -213.1 -28.52 -212.07 -30.67C-211.04 -32.82 -209.48 -34.4 -207.4 -35.4C-205.33 -36.4 -202.66 -36.9 -199.42 -36.9C-196.49 -36.9 -193.57 -36.56 -190.66 -35.88L-190.66 -43.92C-193.59 -44.62 -196.76 -44.97 -200.17 -44.97C-207.85 -44.97 -213.73 -43.05 -217.78 -39.21C-221.84 -35.37 -223.87 -29.67 -223.87 -22.11C-223.88 -14.33 -221.91 -8.6 -217.96 -4.93Z M-155.47 0L-145.84 0L-160.18 -44.4L-174.46 -44.4L-188.8 0L-179.26 0L-175.6 -11.85L-159.13 -11.85ZM-173.23 -19.62L-167.38 -38.55L-161.53 -19.62Z M-141.43 0L-111.25 0L-111.25 -8.13L-131.65 -8.13L-131.65 -44.4L-141.43 -44.4Z M-56.89 -21.6L-65.98 -21.6L-65.98 -7.59C-67.18 -7.55 -68.09 -7.53 -68.71 -7.53C-73.61 -7.53 -77.24 -8.68 -79.6 -10.99C-81.96 -13.3 -83.14 -16.96 -83.14 -21.96C-83.14 -25.52 -82.58 -28.39 -81.45 -30.58C-80.32 -32.77 -78.59 -34.37 -76.27 -35.37C-73.96 -36.37 -70.96 -36.88 -67.27 -36.9C-64.32 -36.9 -61.27 -36.54 -58.15 -35.82L-58.15 -43.86C-61.32 -44.6 -64.65 -44.97 -68.14 -44.97C-76.36 -44.97 -82.63 -43.05 -86.92 -39.21C-91.22 -35.37 -93.37 -29.66 -93.37 -22.08C-93.36 -14.42 -91.24 -8.74 -87.03 -5.04C-82.82 -1.34 -76.47 0.51 -67.96 0.51C-64.59 0.51 -60.9 0.18 -56.89 -0.48Z M-49.09 0L-18.91 0L-18.91 -8.13L-39.31 -8.13L-39.31 -44.4L-49.09 -44.4Z M-7.65 -1.93C-4.52 -0.26 -0.81 0.57 3.5 0.57C7.78 0.57 11.48 -0.27 14.61 -1.95C17.74 -3.63 20.16 -6.17 21.87 -9.57C23.58 -12.97 24.44 -17.18 24.44 -22.2C24.44 -27.22 23.58 -31.43 21.89 -34.83C20.19 -38.23 17.77 -40.77 14.64 -42.45C11.51 -44.13 7.79 -44.97 3.5 -44.97C-0.8 -44.97 -4.52 -44.13 -7.65 -42.46C-10.78 -40.8 -13.2 -38.26 -14.91 -34.86C-16.62 -31.46 -17.47 -27.24 -17.47 -22.2C-17.47 -17.16 -16.62 -12.94 -14.91 -9.54C-13.2 -6.14 -10.78 -3.61 -7.65 -1.93ZM11.6 -10.83C9.74 -8.49 7.04 -7.32 3.5 -7.32C-0.07 -7.32 -2.77 -8.51 -4.63 -10.89C-6.49 -13.27 -7.42 -17.11 -7.42 -22.41C-7.42 -27.51 -6.49 -31.23 -4.62 -33.57C-2.75 -35.91 -0.04 -37.08 3.5 -37.08C7.01 -37.08 9.71 -35.88 11.58 -33.49C13.45 -31.11 14.39 -27.27 14.39 -21.99C14.39 -16.89 13.46 -13.17 11.6 -10.83Z M63.14 -19.42C61.68 -21.19 59.64 -22.36 57.02 -22.92C59.25 -23.56 60.99 -24.74 62.24 -26.46C63.48 -28.18 64.1 -30.22 64.1 -32.58C64.1 -36.76 62.58 -39.87 59.55 -41.89C56.52 -43.92 51.73 -44.94 45.17 -44.94C42.81 -44.94 40.37 -44.8 37.85 -44.52C35.33 -44.24 33.02 -43.87 30.92 -43.41L30.92 -0.36C32.8 -0.1 34.88 0.11 37.17 0.27C39.46 0.43 41.55 0.51 43.43 0.51C48.68 0.51 52.92 0.02 56.15 -0.97C59.37 -1.96 61.7 -3.41 63.15 -5.32C64.6 -7.24 65.33 -9.61 65.33 -12.45C65.33 -15.33 64.59 -17.65 63.14 -19.42ZM40.49 -37.29C42.43 -37.65 44.39 -37.83 46.4 -37.83C48.47 -37.83 50.13 -37.63 51.38 -37.23C52.61 -36.83 53.51 -36.21 54.08 -35.37C54.64 -34.53 54.92 -33.43 54.92 -32.07C54.92 -30.11 54.29 -28.66 53.04 -27.73C51.79 -26.8 49.7 -26.34 46.79 -26.34L40.49 -26.34ZM52.11 -7.3C50.62 -6.85 48.59 -6.63 46.01 -6.63C43.82 -6.63 41.98 -6.71 40.49 -6.87L40.49 -19.02L47.75 -19.02C50.77 -19.02 52.94 -18.53 54.27 -17.55C55.6 -16.57 56.27 -15 56.27 -12.84C56.27 -11.4 55.94 -10.23 55.31 -9.33C54.67 -8.43 53.6 -7.75 52.11 -7.3Z M100.67 0L110.3 0L95.96 -44.4L81.68 -44.4L67.33 0L76.88 0L80.54 -11.85L97.01 -11.85ZM82.91 -19.62L88.76 -38.55L94.61 -19.62Z M114.7 0L144.89 0L144.89 -8.13L124.48 -8.13L124.48 -44.4L114.7 -44.4Z M218.57 -44.4L209.42 -8.67L200.21 -44.4L189.38 -44.4L179.93 -9.09L171.08 -44.4L161.18 -44.4L172.94 0L185.48 0L194.69 -33.66L203.54 0L216.11 0L227.83 -44.4Z M242.39 -7.8L242.39 -18.81L260.9 -18.81L260.9 -26.61L242.39 -26.61L242.39 -36.6L263.96 -36.6L263.96 -44.4L232.73 -44.4L232.73 0L264.26 0L264.26 -7.8Z M302.59 -19.42C301.14 -21.19 299.1 -22.36 296.48 -22.92C298.71 -23.56 300.45 -24.74 301.7 -26.46C302.94 -28.18 303.56 -30.22 303.56 -32.58C303.56 -36.76 302.04 -39.87 299.01 -41.89C295.98 -43.92 291.19 -44.94 284.63 -44.94C282.27 -44.94 279.83 -44.8 277.31 -44.52C274.78 -44.24 272.48 -43.87 270.38 -43.41L270.38 -0.36C272.26 -0.1 274.34 0.11 276.63 0.27C278.92 0.43 281.01 0.51 282.89 0.51C288.14 0.51 292.38 0.02 295.61 -0.97C298.83 -1.96 301.16 -3.41 302.61 -5.32C304.06 -7.24 304.78 -9.61 304.78 -12.45C304.78 -15.33 304.05 -17.65 302.59 -19.42ZM279.95 -37.29C281.89 -37.65 283.85 -37.83 285.86 -37.83C287.93 -37.83 289.59 -37.63 290.83 -37.23C292.07 -36.83 292.97 -36.21 293.53 -35.37C294.1 -34.53 294.38 -33.43 294.38 -32.07C294.38 -30.11 293.75 -28.66 292.5 -27.73C291.25 -26.8 289.16 -26.34 286.25 -26.34L279.95 -26.34ZM291.57 -7.3C290.08 -6.85 288.05 -6.63 285.46 -6.63C283.28 -6.63 281.44 -6.71 279.95 -6.87L279.95 -19.02L287.21 -19.02C290.23 -19.02 292.4 -18.53 293.73 -17.55C295.06 -16.57 295.73 -15 295.73 -12.84C295.73 -11.4 295.4 -10.23 294.77 -9.33C294.13 -8.43 293.06 -7.75 291.57 -7.3Z"></path></g></g></svg>